<?xml version="1.0" encoding="UTF-8"?>
<svg width="180px" height="45px" viewBox="0 0 180 45" version="1.1" xmlns="http://www.w3.org/2000/svg" xmlns:xlink="http://www.w3.org/1999/xlink">
    <title>logo</title>
    <defs>
        <polygon id="path-1" points="0.000101313321 0.134351145 47.3809644 0.134351145 47.3809644 43.6641221 0.000101313321 43.6641221"></polygon>
        <polygon id="path-3" points="0 43.8656489 179.807842 43.8656489 179.807842 0.335877863 0 0.335877863"></polygon>
    </defs>
    <g id="布局-定稿" stroke="none" stroke-width="1" fill="none" fill-rule="evenodd">
        <g id="侧边菜单布局-浅色" transform="translate(-38.000000, -10.000000)">
            <g id="logo" transform="translate(38.000000, 10.000000)">
                <g id="分组" transform="translate(0.000000, 0.201527)">
                    <mask id="mask-2" fill="white">
                        <use xlink:href="#path-1"></use>
                    </mask>
                    <g id="Clip-2"></g>
                    <path d="M23.7087692,28.7660916 C19.2023527,28.7990076 15.5226529,25.1923511 15.4895572,20.7107328 C15.4561238,16.2287786 19.0824653,12.5687176 23.5888818,12.5358015 C28.0952983,12.5028855 31.7749981,16.1092061 31.8080938,20.5911603 C31.8415272,25.0731145 28.2151857,28.7331756 23.7087692,28.7660916 L23.7087692,28.7660916 Z M44.9433659,20.9075573 C43.7563114,11.0387939 35.7995009,3.24541985 25.8235159,2.26700763 L23.6473058,0.134183206 L21.5274934,2.27372519 C11.5842664,3.26926718 3.67135835,11.0307328 2.46235272,20.8497863 L0.000101313321,23.3352824 L2.40055159,25.6881069 C3.28163977,34.1119237 9.09871295,41.0699695 16.9190882,43.6642901 L17.7383752,30.3272519 C21.2259174,32.6605954 26.0950356,32.7627023 29.5515084,30.2405954 L30.5656548,43.6340611 C38.3346979,41.0175725 44.0984128,34.0870687 44.985242,25.7146412 L47.3809644,23.2966565 L44.9433659,20.9075573 Z" id="Fill-1" fill="#CF131C" mask="url(#mask-2)"></path>
                </g>
                <path d="M57.5245553,11.6147908 C57.3141614,9.98007328 57.9737111,9.11552366 59.5028668,9.02013435 L83.4702214,8.02224122 C83.8140113,9.59985954 83.1835047,10.4459359 81.5776886,10.5597985 L57.5245553,11.6147908 Z M59.9901839,17.2887756 C59.7987017,18.5627603 58.7477448,19.1518901 56.8366379,19.0568366 L56.8569006,14.0536 L59.6747617,14.0381496 L62.6277073,14.0381496 L61.8465816,12.4350046 L65.1186642,12.2959511 L65.8099587,14.0381496 L69.1928105,14.0381496 L68.4636923,12.1186076 L71.7249681,12.002058 L72.5469568,14.0381496 L75.6430919,14.0381496 L76.622454,11.7699664 L80.0833171,11.6147908 L78.8543865,14.0381496 L81.3770882,14.0381496 L84.1294334,14.0394931 L84.1294334,16.8612031 C84.1294334,17.4698137 83.9146492,17.9874015 83.4844053,18.4153099 C83.0541614,18.8428824 82.5334109,19.0568366 81.9218161,19.0568366 L81.1477824,19.0568366 L81.1477824,16.633142 L59.9901839,16.633142 L59.9901839,17.2887756 Z M59.5315722,34.2828519 C58.8051557,35.9367145 57.5245553,36.4499359 55.6897711,35.822516 L61.509546,22.4784244 L57.6106717,22.4784244 C57.4573508,20.8437069 58.2985891,20.0261802 60.1333734,20.0261802 L62.5128856,20.0261802 L62.914424,19.028287 C63.1626417,18.4391573 63.6117974,18.0586076 64.2618912,17.8876458 C64.9116473,17.716684 65.7140488,17.716684 66.6701088,17.8876458 L65.6954747,20.0261802 L83.4702214,20.0261802 C83.5462064,20.8245618 83.4026792,21.4331725 83.0399775,21.8510046 C82.6961876,22.2691725 82.1129606,22.4784244 81.2909719,22.4784244 L64.7779137,22.4784244 L64.0325854,24.1605008 L80.7573884,24.1605008 L81.864743,24.1628519 L81.864743,27.1259664 C81.864743,27.6391878 81.849546,28.9360122 81.849546,28.9360122 C81.849546,28.9360122 80.7560375,29.2456916 80.2592645,29.4354626 L75.1561126,31.3177221 L84.2155497,34.2257527 C84.1581388,34.5680122 84.0385891,34.8719817 83.8572383,35.1383328 C83.675212,35.4043481 83.4506341,35.6179664 83.1835047,35.7798595 C82.9156998,35.9410809 82.6242552,36.0408366 82.308833,36.0791267 C81.9937486,36.1170809 81.6732608,36.0791267 81.3483827,35.9652641 L71.543955,32.6575389 L63.3443302,35.8796153 C63.0191144,36.012287 62.6945741,36.064684 62.3696961,36.0361344 C62.0444803,36.0079206 61.7435797,35.9121954 61.4666567,35.7513099 C61.1893959,35.5894168 60.9597523,35.3757985 60.7784015,35.1097832 C60.5967129,34.8434321 60.4775009,34.5394626 60.4200901,34.1975389 L67.5302589,31.3177221 L62.6851182,29.778058 C62.7425291,29.4549435 62.8570131,29.164745 63.0289081,28.9081344 C63.2011407,28.6515237 63.415925,28.4473099 63.6739362,28.2948214 C63.9322852,28.1430046 64.2139362,28.0432489 64.5199024,27.9958901 C64.8251932,27.9481954 65.1406154,27.9720427 65.4658311,28.0667603 L71.4291332,29.9772336 L78.8830919,27.1259664 L78.8830919,26.6983939 L62.914424,26.6983939 L59.5315722,34.2828519 Z" id="Fill-3" fill="#333434"></path>
                <path d="M113.544844,33.9137893 L112.10991,27.5633466 C112.984582,27.3094229 113.673512,27.3208427 114.177377,27.5969344 C114.680904,27.8740336 114.981805,28.2646595 115.079403,28.7701557 L116.631861,35.135713 C114.81869,35.5935145 113.790023,35.1864305 113.544844,33.9137893 L113.544844,33.9137893 Z M110.47066,19.7125374 L112.624919,19.7125374 C112.923794,19.7125374 113.165932,19.471713 113.165932,19.1744611 L113.165932,16.8327206 L111.012011,16.8327206 C110.713137,16.8327206 110.47066,17.073545 110.47066,17.3707969 L110.47066,19.7125374 Z M110.966758,31.4319878 C110.659103,31.7070718 110.353812,31.8951634 110.049872,31.9969344 C109.745932,32.0987053 109.457189,32.1359878 109.182293,32.1081099 C108.908071,32.0805679 108.659178,31.9962626 108.435614,31.8558656 C108.212386,31.7151328 108.044882,31.5283847 107.933775,31.2946137 L105.811598,27.4813924 C106.575501,27.1596214 107.218503,27.0329954 107.740266,27.1015145 C108.26203,27.1700336 108.638916,27.3991023 108.869235,27.7880489 L110.966758,31.4319878 Z M107.776402,16.8327206 L105.76567,16.8327206 C105.466795,16.8327206 105.224657,17.073545 105.224657,17.3707969 L105.224657,19.7125374 L107.235051,19.7125374 C107.533925,19.7125374 107.776402,19.471713 107.776402,19.1744611 L107.776402,16.8327206 Z M100.809422,28.8084458 C100.809422,27.4780336 101.765144,26.9171176 103.676251,27.1260336 L103.676251,33.513087 L112.162593,33.513087 C112.124094,34.3114687 111.908972,34.890858 111.517565,35.2522626 C111.12582,35.6133313 110.56657,35.7940336 109.840492,35.7940336 L100.809422,35.7940336 L100.809422,28.8084458 Z M102.587471,16.8327206 L100.461917,16.8327206 C100.163043,16.8327206 99.9209043,17.073545 99.9209043,17.3707969 L99.9209043,19.7125374 L102.04612,19.7125374 C102.344994,19.7125374 102.587471,19.471713 102.587471,19.1744611 L102.587471,16.8327206 Z M97.190848,24.5951939 C97.1871332,23.9980031 97.1972645,23.4478351 97.1972645,23.4478351 L114.592086,23.4478351 C115.240829,23.4478351 115.766983,23.9707969 115.767321,24.6163542 L115.767996,25.7573313 L98.3664203,25.7573313 C97.7200413,25.7573313 97.1945629,25.2380641 97.190848,24.5951939 L97.190848,24.5951939 Z M105.425595,10.303255 C105.425595,9.77122443 105.568784,9.3863084 105.855163,9.14850687 C106.142218,8.91104122 106.45764,8.74478168 106.801092,8.64939237 C107.202968,8.55467481 107.670698,8.52612519 108.20597,8.56374351 L108.20597,10.4456672 L114.996664,10.4456672 C115.422856,10.4456672 115.768334,10.7892702 115.768334,11.213484 L115.768334,12.7266137 L108.20597,12.7266137 L108.20597,14.4946748 L114.177715,14.4919878 C115.028071,14.4916519 115.717677,15.1771786 115.717677,16.0229191 L115.717677,19.0283542 L115.722743,22.1362321 L98.7392533,22.1362321 C97.8882214,22.1362321 97.1986154,21.4493618 97.1999642,20.6026137 L97.210773,14.4946748 L105.425595,14.4946748 L105.425595,12.6984 L97.9861576,12.7111634 C97.5596285,12.7111634 97.2144878,12.3682321 97.2144878,11.9443542 L97.2144878,10.4298809 L105.425595,10.4171176 L105.425595,10.303255 Z M98.889197,33.3988885 C98.8500225,34.0451176 98.5781651,34.5680794 98.0722739,34.9674382 C97.5653696,35.3664611 96.8433433,35.4991328 95.9072083,35.3664611 L96.5958011,29.2074687 C96.6140375,29.0556519 96.6765141,28.8558046 96.7815422,28.6085985 C96.8869081,28.3620641 97.054075,28.128629 97.2833809,27.9099725 C97.5126867,27.6919878 97.8085216,27.5206901 98.1722364,27.3967511 C98.5352758,27.273484 98.9844315,27.2496366 99.5197036,27.325545 L98.889197,33.3988885 Z M91.6358386,20.4252702 C91.7503227,20.2543084 91.912424,20.0218809 92.122818,19.7266443 C92.3328743,19.4324153 92.6104728,19.1707664 92.9546004,18.9427053 C93.2983902,18.7146443 93.7141126,18.5675298 94.2014296,18.5006901 C94.6890844,18.4345221 95.2479962,18.5534229 95.8785028,18.8570565 L92.3524615,24.3889649 L94.6745629,24.3993771 L94.6745629,34.0263084 C94.6745629,34.7104916 94.4496473,35.2139725 94.0008293,35.5374229 C93.5516735,35.8605374 92.8012795,36.0029496 91.7503227,35.9649954 L91.7503227,26.6699115 L89.8770394,26.6699115 C88.8743752,26.6699115 87.9466829,25.9098198 88.9020675,24.3889649 L91.6358386,20.4252702 Z M92.209272,15.8915908 C92.0752008,16.0820336 91.8935122,16.2909496 91.6642064,16.5190107 C91.4352383,16.7470718 91.1573021,16.9324763 90.8330994,17.0752244 C90.5078837,17.2176366 90.1397786,17.2844763 89.729122,17.2744 C89.3177899,17.2653313 88.8639062,17.1276214 88.3671332,16.8612702 L92.209272,10.6451786 C92.457152,10.2653008 92.7202289,9.96603359 92.9974897,9.74704122 C93.2744128,9.52872061 93.5705854,9.38127023 93.8863452,9.30502595 C94.2014296,9.22945344 94.5455572,9.20527023 94.9180525,9.23381985 C95.2908856,9.26236947 95.7066079,9.32450687 96.1652195,9.41922443 L92.209272,15.8915908 Z" id="Fill-5" fill="#333434"></path>
                <mask id="mask-4" fill="white">
                    <use xlink:href="#path-3"></use>
                </mask>
                <g id="Clip-8"></g>
                <path d="M171.694334,20.4539542 L176.883265,20.4539542 L176.883265,11.3294962 L171.694334,11.3294962 L171.694334,20.4539542 Z M168.712683,11.1299847 L168.712683,23.1057099 L176.941013,23.1057099 C178.852458,23.1057099 179.807842,22.3640916 179.807842,20.8815267 L179.807842,8.82048855 L171.465366,8.82048855 C169.630244,8.82048855 168.712683,9.59032061 168.712683,11.1299847 L168.712683,11.1299847 Z" id="Fill-7" fill="#333434" mask="url(#mask-4)"></path>
                <path d="M163.724623,17.9161282 L167.771415,17.9161282 L167.771415,16.2572275 C167.771415,15.7399756 167.349614,15.3204641 166.829876,15.3208 L162.262334,15.3214718 L162.262334,12.5840672 L166.948413,12.5840672 L166.948413,9.96018931 L161.841208,9.96018931 L161.841208,9.96119695 L156.872803,9.96119695 L158.105448,8.59249466 C157.589426,8.36443359 157.082184,8.27744122 156.680983,8.22974656 C156.279107,8.18238779 155.842447,8.20220458 155.527024,8.29692214 C155.211602,8.39231145 154.848901,8.6737771 154.590889,8.89209771 C154.33254,9.11109008 153.246462,10.0209832 153.246462,10.0209832 L153.244098,12.5837313 L158.993966,12.5840672 L158.993966,15.3214718 L152.744285,15.3204641 L152.744285,16.9797008 C152.744285,17.4969527 153.165749,17.9161282 153.685824,17.9161282 L157.56072,17.9161282 L152.830402,23.1057771 C153.250514,23.3721282 153.628413,23.5810443 153.963084,23.7328611 C154.297081,23.8850137 154.622296,23.9565557 154.937381,23.9468153 C155.252803,23.9374107 155.563497,23.8426931 155.869126,23.6613191 C156.174754,23.4809527 160.714266,18.6288611 160.714266,18.6288611 C160.714266,18.6288611 164.928563,23.2481893 165.27269,23.3620519 C165.616818,23.4762504 165.955542,23.5048 166.290552,23.4477008 C166.624548,23.3906015 166.949764,23.2767389 167.265186,23.1057771 C167.580608,22.9344794 167.871715,22.7349679 168.13952,22.5069069 L163.724623,17.9161282 Z" id="Fill-9" fill="#333434" mask="url(#mask-4)"></path>
                <path d="M175.822852,28.8652763 L157.331482,28.8652763 L157.331482,26.7838412 L161.976023,26.7838412 L175.822852,26.7838412 L175.822852,28.8652763 Z M157.331482,33.6266809 L175.822852,33.6266809 L175.822852,31.5455817 L157.331482,31.5455817 L157.331482,33.6266809 Z M156.868818,24.1159634 C156.503752,24.1300702 156.149493,24.1727267 155.811782,24.2603908 C155.410919,24.3651847 155.085704,24.5217038 154.837148,24.7309557 C154.340038,25.1682687 154.091482,25.8333069 154.091482,26.726742 L154.091482,36.164574 L176.338537,36.164574 C177.256098,36.164574 177.963265,36.0026809 178.460375,35.6799023 C178.937899,35.3755969 179.176998,34.8815206 179.176998,34.1973374 L179.196585,24.1035359 L156.868818,24.1159634 Z" id="Fill-10" fill="#333434" mask="url(#mask-4)"></path>
                <path d="M126.067542,12.8978107 L124.490769,9.90379542 C123.76469,8.78263511 122.626942,8.47832977 121.079212,8.99155115 L122.598912,11.9855664 C123.114934,13.0120092 124.270919,13.3163145 126.067542,12.8978107" id="Fill-11" fill="#333434" mask="url(#mask-4)"></path>
                <path d="M124.691606,20.282858 L127.414908,16.6332092 L127.414908,21.7368733 C129.49791,21.8131176 130.539749,21.2807511 130.539749,20.1401099 L130.539749,16.6043237 L131.084814,16.6043237 L133.493032,20.2257588 C133.894233,20.7772702 134.448417,21.1195298 135.155246,21.2522015 C135.824589,21.4234992 136.607741,21.3761405 137.506728,21.1097893 L134.295433,16.6043237 L136.617535,16.6043237 L136.617535,13.8958046 L130.539749,13.8958046 L130.539749,8.33568244 C129.488454,8.12676641 128.705302,8.23156031 128.188942,8.64939237 C127.672919,9.06756031 127.414908,9.67583511 127.414908,10.4742168 L127.414908,13.8958046 L120.419899,13.8958046 L120.419899,16.6043237 L124.290405,16.6043237 L120.419899,21.6515603 C122.120949,22.2030718 123.544739,21.7466137 124.691606,20.282858" id="Fill-12" fill="#333434" mask="url(#mask-4)"></path>
                <path d="M135.098341,12.0139817 L136.617704,8.99141679 C135.012225,8.47819542 133.865696,8.78250076 133.177779,9.90399695 L131.658079,12.9833252 C133.416203,13.3638748 134.563069,13.0404244 135.098341,12.0139817" id="Fill-13" fill="#333434" mask="url(#mask-4)"></path>
                <path d="M146.737824,19.4274107 C147.043114,18.7244183 147.196435,18.0016092 147.196435,17.2603267 L147.196435,13.8101893 C147.196435,13.8101893 148.638799,13.8075023 148.638799,12.4848153 C148.638799,11.1554107 147.361914,11.1587695 147.361914,11.1587695 L140.488143,11.1587695 L140.660038,10.6737618 C140.889343,9.97076947 140.77925,9.38130382 140.330432,8.90603664 C139.880938,8.43110534 139.207205,8.19296794 138.309231,8.19296794 L137.068818,11.3693649 L137.068818,12.8556244 L138.73272,13.8101893 L144.215122,13.8101893 L144.215122,17.8877466 L142.552233,21.5944947 L140.370281,15.7814565 C140.370281,15.7814565 139.437186,15.777426 138.592233,15.7918687 C137.941463,15.8029527 137.501764,16.456571 137.739174,17.0594718 L140.946754,25.2155939 L136.359962,35.5374565 C137.238687,35.9744336 137.998537,36.0792275 138.639174,35.8508305 C139.278799,35.6231053 139.761388,35.0907389 140.086942,34.2544031 L142.523527,28.8366931 L144.931745,34.4253649 C145.1803,34.9194412 145.476811,35.2902504 145.8206,35.5374565 C146.125891,35.7655176 146.499062,35.893487 146.938762,35.9220366 C147.378124,35.9505863 147.894146,35.7463725 148.487167,35.3093954 L144.129006,25.2441435 L146.737824,19.4274107 Z" id="Fill-14" fill="#333434" mask="url(#mask-4)"></path>
                <path d="M125.350886,29.0363389 L126.440679,26.7268427 L132.977077,26.7268427 L132.977077,29.0648885 L129.565182,30.7187511 L125.350886,29.0363389 Z M136.474413,33.8551786 L132.604244,32.1442168 L134.582555,31.1463237 C135.213062,30.8611634 135.633174,30.5524916 135.843568,30.2196366 C136.053625,29.8874534 136.159328,29.3785985 136.159328,28.6940794 L136.141092,26.7268427 L137.408184,26.7268427 L137.408184,25.1912092 C137.408184,24.7008275 137.008672,24.3031481 136.515614,24.3031481 L136.118803,24.3031481 L133.721392,24.3031481 L127.701692,24.3031481 L128.475726,22.4783237 C126.449797,21.9651023 125.207696,22.2694076 124.748747,23.3905679 L124.347546,24.3031481 L120.788071,24.3031481 L120.791111,25.8404611 C120.791786,26.330171 121.191636,26.7268427 121.684019,26.7268427 L123.028784,26.7268427 L122.684657,27.7247359 C122.359779,28.5422626 121.677602,30.0375908 121.677602,30.0375908 L123.917302,31.1748733 L126.067508,32.1442168 L120.591861,34.3398504 L120.677977,34.5396977 C120.792799,34.7862321 120.945107,35.0189954 121.136589,35.2379878 C121.327396,35.4563084 121.552311,35.6373466 121.810323,35.7797588 C122.068334,35.922171 122.349985,36.0081557 122.655951,36.0363695 C122.96158,36.0649191 123.30537,36.0027817 123.687996,35.8509649 L129.221054,33.3987206 L133.263794,35.3380794 C133.607246,35.4898962 133.946645,35.5611023 134.280979,35.5513618 C134.615313,35.5416214 134.930735,35.4754534 135.227583,35.3521863 C135.523418,35.2285832 135.781767,35.0428427 136.001617,34.7959725 C136.221129,34.5487664 136.378503,34.2542015 136.474413,33.9122779 L136.474413,33.8551786 Z" id="Fill-15" fill="#333434" mask="url(#mask-4)"></path>
            </g>
        </g>
    </g>
</svg>